<svg width="80" height="80" viewBox="0 0 80 80" fill="none" xmlns="http://www.w3.org/2000/svg">
<circle cx="40" cy="40" r="40" fill="#E2A037"/>
<path d="M28.6 42.4V34.25H23.9C23.7333 34.25 23.5833 34.3167 23.45 34.45C23.3167 34.5833 23.25 34.7333 23.25 34.9V55.1C23.25 55.2667 23.3167 55.4167 23.45 55.55C23.5833 55.6833 23.7333 55.75 23.9 55.75H56.1C56.2667 55.75 56.4167 55.6833 56.55 55.55C56.6833 55.4167 56.75 55.2667 56.75 55.1V34.9C56.75 34.7333 56.6833 34.5833 56.55 34.45C56.4167 34.3167 56.2667 34.25 56.1 34.25H34.15V32H56.1C56.9 32 57.5833 32.2833 58.15 32.85C58.7167 33.4167 59 34.1 59 34.9V55.1C59 55.9 58.7167 56.5833 58.15 57.15C57.5833 57.7167 56.9 58 56.1 58H23.9C23.1 58 22.4167 57.7167 21.85 57.15C21.2833 56.5833 21 55.9 21 55.1V34.9C21 34.1 21.2833 33.4167 21.85 32.85C22.4167 32.2833 23.1 32 23.9 32H28.6V19.5H42.4V25.95H30.9V42.4H28.6Z" fill="white"/>
</svg>
