<svg preserveAspectRatio="none" width="100%" height="100%" overflow="visible" style="display: block;" viewBox="0 0 40 40" fill="none" xmlns="http://www.w3.org/2000/svg">
<g id="ph:calendar-x">
<path id="Vector" d="M32.5 5H28.75V3.75C28.75 3.41848 28.6183 3.10054 28.3839 2.86612C28.1495 2.6317 27.8315 2.5 27.5 2.5C27.1685 2.5 26.8505 2.6317 26.6161 2.86612C26.3817 3.10054 26.25 3.41848 26.25 3.75V5H13.75V3.75C13.75 3.41848 13.6183 3.10054 13.3839 2.86612C13.1495 2.6317 12.8315 2.5 12.5 2.5C12.1685 2.5 11.8505 2.6317 11.6161 2.86612C11.3817 3.10054 11.25 3.41848 11.25 3.75V5H7.5C6.83696 5 6.20107 5.26339 5.73223 5.73223C5.26339 6.20107 5 6.83696 5 7.5V32.5C5 33.163 5.26339 33.7989 5.73223 34.2678C6.20107 34.7366 6.83696 35 7.5 35H32.5C33.163 35 33.7989 34.7366 34.2678 34.2678C34.7366 33.7989 35 33.163 35 32.5V7.5C35 6.83696 34.7366 6.20107 34.2678 5.73223C33.7989 5.26339 33.163 5 32.5 5ZM11.25 7.5V8.75C11.25 9.08152 11.3817 9.39946 11.6161 9.63388C11.8505 9.8683 12.1685 10 12.5 10C12.8315 10 13.1495 9.8683 13.3839 9.63388C13.6183 9.39946 13.75 9.08152 13.75 8.75V7.5H26.25V8.75C26.25 9.08152 26.3817 9.39946 26.6161 9.63388C26.8505 9.8683 27.1685 10 27.5 10C27.8315 10 28.1495 9.8683 28.3839 9.63388C28.6183 9.39946 28.75 9.08152 28.75 8.75V7.5H32.5V12.5H7.5V7.5H11.25ZM32.5 32.5H7.5V15H32.5V32.5ZM24.6344 20.8844L21.7672 23.75L24.6344 26.6156C24.7505 26.7318 24.8426 26.8696 24.9055 27.0214C24.9683 27.1731 25.0007 27.3358 25.0007 27.5C25.0007 27.6642 24.9683 27.8269 24.9055 27.9786C24.8426 28.1304 24.7505 28.2682 24.6344 28.3844C24.5182 28.5005 24.3804 28.5926 24.2286 28.6555C24.0769 28.7183 23.9142 28.7507 23.75 28.7507C23.5858 28.7507 23.4231 28.7183 23.2714 28.6555C23.1196 28.5926 22.9818 28.5005 22.8656 28.3844L20 25.5172L17.1344 28.3844C17.0182 28.5005 16.8804 28.5926 16.7286 28.6555C16.5769 28.7183 16.4142 28.7507 16.25 28.7507C16.0858 28.7507 15.9231 28.7183 15.7714 28.6555C15.6196 28.5926 15.4818 28.5005 15.3656 28.3844C15.2495 28.2682 15.1574 28.1304 15.0945 27.9786C15.0317 27.8269 14.9993 27.6642 14.9993 27.5C14.9993 27.3358 15.0317 27.1731 15.0945 27.0214C15.1574 26.8696 15.2495 26.7318 15.3656 26.6156L18.2328 23.75L15.3656 20.8844C15.1311 20.6498 14.9993 20.3317 14.9993 20C14.9993 19.6683 15.1311 19.3502 15.3656 19.1156C15.6002 18.8811 15.9183 18.7493 16.25 18.7493C16.5817 18.7493 16.8998 18.8811 17.1344 19.1156L20 21.9828L22.8656 19.1156C22.9818 18.9995 23.1196 18.9074 23.2714 18.8445C23.4231 18.7817 23.5858 18.7493 23.75 18.7493C23.9142 18.7493 24.0769 18.7817 24.2286 18.8445C24.3804 18.9074 24.5182 18.9995 24.6344 19.1156C24.7505 19.2318 24.8426 19.3696 24.9055 19.5214C24.9683 19.6731 25.0007 19.8358 25.0007 20C25.0007 20.1642 24.9683 20.3269 24.9055 20.4786C24.8426 20.6304 24.7505 20.7682 24.6344 20.8844Z" fill="var(--fill-0, #E2A037)"/>
</g>
</svg>
