<svg preserveAspectRatio="none" width="100%" height="100%" overflow="visible" style="display: block;" viewBox="0 0 40 40" fill="none" xmlns="http://www.w3.org/2000/svg">
<g id="mdi:chat-outline">
<path id="Vector" d="M19.9997 5C10.833 5 3.33301 10.9667 3.33301 18.3333C3.37509 20.1044 3.80772 21.8444 4.60001 23.429C5.3923 25.0136 6.5247 26.4037 7.91634 27.5C7.91634 28.5 7.21634 31.1167 3.33301 35C7.28301 34.8167 11.0663 33.3333 14.1163 30.8333C16.0163 31.3833 18.0163 31.6667 19.9997 31.6667C29.1663 31.6667 36.6663 25.7 36.6663 18.3333C36.6663 10.9667 29.1663 5 19.9997 5ZM19.9997 28.3333C12.633 28.3333 6.66634 23.85 6.66634 18.3333C6.66634 12.8167 12.633 8.33333 19.9997 8.33333C27.3663 8.33333 33.333 12.8167 33.333 18.3333C33.333 23.85 27.3663 28.3333 19.9997 28.3333Z" fill="var(--fill-0, #E2A037)"/>
</g>
</svg>
