<svg preserveAspectRatio="none" width="100%" height="100%" overflow="visible" style="display: block;" viewBox="0 0 80 80" fill="none" xmlns="http://www.w3.org/2000/svg">
<g id="inbox">
<path id="Vector" d="M73.336 40H53.3344L46.6672 49.999H33.3328L26.6656 40H6.664M6.664 40L18.1649 17.0356C18.7169 15.925 19.5678 14.9904 20.6219 14.3368C21.6761 13.6833 22.8917 13.3367 24.1321 13.336H55.8679C57.1083 13.3367 58.3239 13.6833 59.3781 14.3368C60.4322 14.9904 61.2831 15.925 61.8351 17.0356L73.336 40V59.998C73.336 61.7659 72.6336 63.4615 71.3832 64.7116C70.1329 65.9617 68.437 66.664 66.6688 66.664H13.3312C11.5629 66.664 9.86712 65.9617 8.61678 64.7116C7.36643 63.4615 6.664 61.7659 6.664 59.998V40Z" stroke="var(--stroke-0, #E2A037)" stroke-width="2" stroke-linecap="round"/>
</g>
</svg>
