<svg preserveAspectRatio="none" width="100%" height="100%" overflow="visible" style="display: block;" viewBox="0 0 32.5 33.3333" fill="none" xmlns="http://www.w3.org/2000/svg">
<g id="Group">
<path id="Vector" d="M12.5 13.3333C13.266 13.3333 14.0246 13.1824 14.7323 12.8893C15.4401 12.5961 16.0831 12.1665 16.6248 11.6248C17.1665 11.0831 17.5961 10.4401 17.8893 9.73232C18.1825 9.02459 18.3333 8.26604 18.3333 7.5C18.3333 6.73396 18.1825 5.97541 17.8893 5.26768C17.5961 4.55995 17.1665 3.91689 16.6248 3.37521C16.0831 2.83354 15.4401 2.40385 14.7323 2.1107C14.0246 1.81755 13.266 1.66667 12.5 1.66667C10.9529 1.66667 9.46917 2.28125 8.37521 3.37521C7.28125 4.46917 6.66667 5.9529 6.66667 7.5C6.66667 9.0471 7.28125 10.5308 8.37521 11.6248C9.46917 12.7188 10.9529 13.3333 12.5 13.3333Z" stroke="var(--stroke-0, #E2A037)" stroke-width="3.33333" stroke-linejoin="round"/>
<path id="Vector_2" d="M24.1667 22.5L30.8333 29.1667M24.1667 29.1667L30.8333 22.5M19.1667 20H12.3333C8.6 20 6.73333 20 5.30667 20.7267C4.05231 21.3658 3.03248 22.3856 2.39333 23.64C1.66667 25.0667 1.66667 26.9333 1.66667 30.6667V31.6667H19.1667" stroke="var(--stroke-0, #E2A037)" stroke-width="3.33333" stroke-linecap="round" stroke-linejoin="round"/>
</g>
</svg>
