<svg preserveAspectRatio="none" width="100%" height="100%" overflow="visible" style="display: block;" viewBox="0 0 51 42" fill="none" xmlns="http://www.w3.org/2000/svg">
<path id="&#226;&#128;&#156;" d="M0 28.0581C0 26.7801 0.114865 25.444 0.344595 24.0498C1.60811 15.3361 5.68581 7.3195 12.5777 0L16.0236 2.61411C11.8885 7.02905 9.76351 10.9793 9.64865 14.4647C9.76351 16.4398 11.1993 17.834 13.9561 18.6473C14.7601 18.8797 15.6216 19.1701 16.5405 19.5187C21.0203 21.61 23.2601 25.1535 23.2601 30.1494C23.2601 32.0083 22.8581 33.751 22.0541 35.3776C19.9865 39.7925 16.6554 42 12.0608 42C10.4527 42 8.95946 41.7095 7.58108 41.1286C2.52703 39.2697 0 34.9129 0 28.0581ZM27.7399 28.0581C27.7399 26.7801 27.8547 25.444 28.0845 24.0498C29.348 15.3361 33.4257 7.3195 40.3176 0L43.7635 2.61411C39.6284 7.02905 37.5034 10.9793 37.3885 14.4647C37.5034 16.4398 38.9392 17.834 41.6959 18.6473C42.5 18.8797 43.3615 19.1701 44.2804 19.5187C48.7601 21.61 51 25.1535 51 30.1494C51 32.0083 50.598 33.751 49.7939 35.3776C47.7264 39.7925 44.3953 42 39.8007 42C38.1926 42 36.6993 41.7095 35.3209 41.1286C30.2669 39.2697 27.7399 34.9129 27.7399 28.0581Z" fill="var(--fill-0, #5A3700)"/>
</svg>
