<svg preserveAspectRatio="none" width="100%" height="100%" overflow="visible" style="display: block;" viewBox="0 0 80 80" fill="none" xmlns="http://www.w3.org/2000/svg">
<g id="user-plus">
<path id="Vector" d="M53.3344 70V63.3333C53.3344 59.7971 51.9295 56.4057 49.4288 53.9052C46.9282 51.4048 43.5365 50 40 50H19.9984C16.4619 50 13.0702 51.4048 10.5696 53.9052C8.06887 56.4057 6.664 59.7971 6.664 63.3333V70M63.3352 26.6667V46.6667M73.336 36.6667H53.3344M43.3336 23.3333C43.3336 30.6971 37.3636 36.6667 29.9992 36.6667C22.6348 36.6667 16.6648 30.6971 16.6648 23.3333C16.6648 15.9695 22.6348 10 29.9992 10C37.3636 10 43.3336 15.9695 43.3336 23.3333Z" stroke="var(--stroke-0, #E2A037)" stroke-width="2" stroke-linecap="round"/>
</g>
</svg>
