<svg preserveAspectRatio="none" width="100%" height="100%" overflow="visible" style="display: block;" viewBox="0 0 40 40" fill="none" xmlns="http://www.w3.org/2000/svg">
<g id="solar:wallet-outline">
<path id="Vector" d="M31.6663 20C31.6663 20.4421 31.4907 20.866 31.1782 21.1786C30.8656 21.4911 30.4417 21.6667 29.9997 21.6667C29.5576 21.6667 29.1337 21.4911 28.8212 21.1786C28.5086 20.866 28.333 20.4421 28.333 20C28.333 19.558 28.5086 19.1341 28.8212 18.8215C29.1337 18.509 29.5576 18.3334 29.9997 18.3334C30.4417 18.3334 30.8656 18.509 31.1782 18.8215C31.4907 19.1341 31.6663 19.558 31.6663 20Z" fill="var(--fill-0, #E2A037)"/>
<path id="Vector_2" fill-rule="evenodd" clip-rule="evenodd" d="M16.573 5.41663H21.7597C24.823 5.41663 27.2497 5.41663 29.148 5.67163C31.1013 5.93496 32.683 6.48829 33.9313 7.73496C35.4713 9.27663 35.963 11.34 36.1413 14.0183C37.103 14.44 37.8297 15.335 37.908 16.4683C37.9163 16.57 37.9163 16.6783 37.9163 16.7783V23.2216C37.9163 23.3216 37.9163 23.43 37.9097 23.53C37.8297 24.6633 37.103 25.56 36.1413 25.9833C35.963 28.66 35.4713 30.7233 33.9313 32.265C32.683 33.5116 31.1013 34.065 29.148 34.3283C27.248 34.5833 24.823 34.5833 21.7597 34.5833H16.573C13.5097 34.5833 11.083 34.5833 9.18467 34.3283C7.23134 34.065 5.64967 33.5116 4.40134 32.265C3.15467 31.0166 2.60134 29.435 2.33801 27.4816C2.08301 25.5816 2.08301 23.1566 2.08301 20.0933V19.9066C2.08301 16.8433 2.08301 14.4166 2.33801 12.5183C2.60134 10.565 3.15467 8.98329 4.40134 7.73496C5.64967 6.48829 7.23134 5.93496 9.18467 5.67163C11.0847 5.41663 13.5097 5.41663 16.573 5.41663ZM33.613 26.25H30.383C26.808 26.25 23.748 23.5366 23.748 20C23.748 16.4633 26.808 13.75 30.3813 13.75H33.6113C33.4213 11.515 32.993 10.3333 32.1613 9.50329C31.4563 8.79829 30.4897 8.37496 28.813 8.14996C27.1013 7.91996 24.843 7.91663 21.6647 7.91663H16.6647C13.4863 7.91663 11.2297 7.91996 9.51467 8.14996C7.83967 8.37496 6.87301 8.79829 6.16801 9.50329C5.46301 10.2083 5.04134 11.175 4.81634 12.85C4.58634 14.5633 4.58301 16.82 4.58301 19.9983C4.58301 23.1766 4.58634 25.435 4.81634 27.1483C5.04134 28.8233 5.46467 29.79 6.16967 30.495C6.87467 31.2 7.84134 31.6233 9.51801 31.8483C11.2313 32.0783 13.488 32.0816 16.6663 32.0816H21.6663C24.8447 32.0816 27.103 32.0783 28.8163 31.8483C30.4913 31.6233 31.458 31.2 32.163 30.495C32.9947 29.665 33.423 28.485 33.613 26.2483M8.74967 13.3333C8.74967 13.0018 8.88137 12.6838 9.11579 12.4494C9.35021 12.215 9.66815 12.0833 9.99967 12.0833H16.6663C16.9979 12.0833 17.3158 12.215 17.5502 12.4494C17.7846 12.6838 17.9163 13.0018 17.9163 13.3333C17.9163 13.6648 17.7846 13.9828 17.5502 14.2172C17.3158 14.4516 16.9979 14.5833 16.6663 14.5833H9.99967C9.66815 14.5833 9.35021 14.4516 9.11579 14.2172C8.88137 13.9828 8.74967 13.6648 8.74967 13.3333ZM34.873 16.25H30.383C28.0097 16.25 26.248 18.015 26.248 20C26.248 21.985 28.0097 23.75 30.3813 23.75H34.9113C35.2547 23.7283 35.403 23.4966 35.4147 23.3566V16.6433C35.403 16.5033 35.2547 16.2716 34.9113 16.2516L34.873 16.25Z" fill="var(--fill-0, #E2A037)"/>
</g>
</svg>
